<svg id="Capa_1" enable-background="new 0 0 512 512" height="512" viewBox="0 0 512 512" width="512" xmlns="http://www.w3.org/2000/svg" xmlns:xlink="http://www.w3.org/1999/xlink"><linearGradient id="SVGID_1_" gradientUnits="userSpaceOnUse" x1="256" x2="256" y1="512" y2="0"><stop offset="0" stop-color="#fd3a84"/><stop offset="1" stop-color="#ffa68d"/></linearGradient><g><g><path d="m256 422c8.284 0 15-6.716 15-15v-180c0-8.284-6.716-15-15-15s-15 6.716-15 15v180c0 8.284 6.716 15 15 15zm66.044-.052c.424.035.845.053 1.262.053 7.72 0 14.279-5.924 14.932-13.756l14.996-180c.688-8.255-5.447-15.505-13.703-16.193-8.267-.692-15.506 5.448-16.194 13.703l-14.996 180c-.688 8.255 5.448 15.505 13.703 16.193zm113.956-361.948h-105v-15c0-24.813-20.187-45-45-45h-60c-24.813 0-45 20.187-45 45v15h-105c-8.284 0-15 6.716-15 15s6.716 15 15 15h360c8.284 0 15-6.716 15-15s-6.716-15-15-15zm-135 0h-90v-15c0-8.271 6.729-15 15-15h60c8.271 0 15 6.729 15 15zm-127.238 348.245c.652 7.833 7.211 13.756 14.932 13.756.417 0 .839-.018 1.262-.053 8.255-.688 14.391-7.938 13.703-16.193l-14.996-180c-.688-8.255-7.937-14.389-16.194-13.703-8.255.688-14.391 7.938-13.703 16.193zm232.238-286.245h-300c-4.195 0-8.198 1.756-11.038 4.843s-4.258 7.222-3.91 11.402l27.708 332.492c1.928 23.138 21.626 41.263 44.844 41.263h184.792c23.218 0 42.916-18.125 44.845-41.263l27.708-332.491c.348-4.18-1.07-8.315-3.91-11.402s-6.844-4.844-11.039-4.844zm-42.656 346.245c-.643 7.713-7.209 13.755-14.948 13.755h-184.792c-7.739 0-14.306-6.042-14.948-13.754l-26.354-316.246h267.396z" fill="url(#SVGID_1_)"/></g></g></svg>